<?xml version="1.0" encoding="utf-8"?>
<!-- Generator: Adobe Illustrator 22.0.1, SVG Export Plug-In . SVG Version: 6.00 Build 0)  -->
<svg version="1.1" id="Layer_1" xmlns="http://www.w3.org/2000/svg" xmlns:xlink="http://www.w3.org/1999/xlink" x="0px" y="0px"
	 viewBox="0 0 239 163" style="enable-background:new 0 0 239 163;" xml:space="preserve">
<style type="text/css">
	.st0{fill:#F6A704;}
	.st1{fill:#ED6A47;stroke:#ED6A47;stroke-width:7;stroke-miterlimit:10;}
	.st2{fill:#FFFFFF;}
</style>
<rect class="st0" width="239" height="163"/>
<path class="st1" d="M88.9,122.1c-12.4,0-22.2-3.5-29.2-10.3c-7-6.9-10.5-16.6-10.5-29.1c0-12.4,3.3-22.2,9.7-29
	c6.5-6.9,15.3-10.3,26.3-10.3c10.7,0,19.1,3.4,25.2,10c6,6.6,9.1,15.5,9.1,26.5v6.6c0,3.5-2.1,5.6-5.6,5.6H74.4
	c0.9,2.9,2.4,5.3,4.7,7.1c2.9,2.3,6.8,3.4,11.5,3.4c5.5,0,10.9-1.3,16.1-3.8c0.9-0.4,1.8-0.7,2.6-0.7c1.2,0,3.5,0.5,4.7,4.1l2.3,7.1
	c0.9,3-0.3,5.5-3.2,7C105.9,120.2,97.7,122.1,88.9,122.1z M96.9,75.7c-0.1-4-1.1-7.1-2.9-9.3c-1.9-2.3-4.6-3.4-8.3-3.4
	c-9,0-11.4,6.8-12.2,12.8H96.9z"/>
<path class="st2" d="M90.7,104.7c5.9,0,11.5-1.3,16.9-4c2.2-1.1,3.8-0.3,4.6,2.3l2.3,7.1c0.6,2-0.1,3.5-2.2,4.6
	c-7.1,3.7-14.9,5.5-23.5,5.5c-12,0-21.2-3.2-27.8-9.7c-6.6-6.5-9.9-15.7-9.9-27.6c0-11.9,3.1-21.1,9.2-27.6
	c6.1-6.5,14.4-9.7,24.9-9.7c10.2,0,18.1,3.1,23.8,9.4c5.7,6.3,8.5,14.6,8.5,25.1v6.6c0,2.4-1.2,3.6-3.6,3.6H72
	c0.8,4.6,2.8,8.1,6,10.7C81.2,103.4,85.4,104.7,90.7,104.7z M85.6,60.9c-8.7,0-13.5,5.6-14.3,16.8h27.5v-0.9c0-5-1.1-8.9-3.4-11.7
	C93.2,62.3,89.9,60.9,85.6,60.9z"/>
<path class="st1" d="M163.1,122c-11.6,0-20.9-3.4-27.6-10.1c-6.8-6.7-10.2-16.6-10.2-29.3c0-12.6,3.4-22.4,10.1-29.1
	c6.7-6.7,15.8-10.1,27.2-10.1c9.1,0,16.4,1.7,21.7,5.1c2.8,1.7,3.8,4.4,2.7,7.4l-3.6,8.7c-0.9,2.2-2.6,3.4-4.8,3.4
	c-0.9,0-1.8-0.2-2.8-0.6l-0.1,0c-3.4-1.5-7-2.3-10.6-2.3c-9.9,0-14.5,5.5-14.5,17.5c0,6.1,1.3,10.6,3.8,13.4c2.5,2.8,6,4.2,10.7,4.2
	c4.2,0,8-0.9,11.1-2.6l0.1,0l0.1,0c1-0.4,2-0.7,2.8-0.7c1.2,0,3.5,0.5,4.8,3.6l3.6,8.4c0.7,1.7,1.2,4.9-2.6,7.6
	c-2.4,1.6-5.5,2.9-9.6,3.9C171.3,121.5,167.2,122,163.1,122z"/>
<path class="st2" d="M127.2,82.7c0-12.1,3.2-21.3,9.5-27.7c6.3-6.4,15-9.5,25.9-9.5c8.8,0,15.7,1.6,20.7,4.8c2.1,1.3,2.7,2.9,1.9,5
	l-3.6,8.6c-0.9,2.1-2.6,2.7-5.2,1.7c-3.7-1.6-7.5-2.4-11.4-2.4c-10.9,0-16.4,6.5-16.4,19.5c0,6.6,1.4,11.5,4.3,14.8
	c2.9,3.2,6.9,4.8,12.1,4.8c4.6,0,8.6-0.9,12-2.8c2.4-1.1,4.1-0.4,5,1.9l3.6,8.5c0.8,2,0.1,3.7-1.9,5.1c-2.2,1.4-5.1,2.6-9,3.6
	c-3.8,1-7.7,1.5-11.7,1.5c-11.1,0-19.9-3.2-26.3-9.5C130.4,104.1,127.2,94.8,127.2,82.7z"/>
</svg>
